<svg xmlns="http://www.w3.org/2000/svg" width="1200" height="500" viewBox="0 0 1200 500" role="img" aria-label="I sei segni di un'area clienti seria">
  <defs>
    <pattern id="gridAs" width="40" height="40" patternUnits="userSpaceOnUse"><path d="M40 0H0V40" fill="none" stroke="#EBEAE4" stroke-width="1"/></pattern>
    <style>.mono{font-family:'Fragment Mono',ui-monospace,'DejaVu Sans Mono',monospace;}.body{font-family:'General Sans',system-ui,'DejaVu Sans',Arial,sans-serif;font-weight:600;}</style>
  </defs>
  <rect width="1200" height="500" fill="#F7F6F2"/>
  <rect width="1200" height="500" fill="url(#gridAs)"/>
  <text x="80" y="58" class="mono" font-size="15" letter-spacing="3" fill="#5A5E66">AREA CLIENTI · 6 SEGNI DI SERIETÀ</text>
  <line x1="80" y1="76" x2="1120" y2="76" stroke="#14161A" stroke-width="1.5"/>
  <!-- 3 × 2 tiles -->
  <g transform="translate(80,110)">
    <g>
      <rect x="0" y="0" width="330" height="160" fill="#FFFFFF" stroke="#DDDBD4" stroke-width="1.5"/>
      <rect x="0" y="0" width="330" height="6" fill="#2440C8"/>
      <text x="22" y="46" class="mono" font-size="14" fill="#2440C8">/01</text>
      <text x="22" y="86" class="body" font-size="24" fill="#14161A">Fasi visibili</text>
      <g transform="translate(22,112)">
        <circle cx="8" cy="10" r="6" fill="#1E7F4F"/><circle cx="34" cy="10" r="6" fill="#1E7F4F"/><circle cx="60" cy="10" r="7" fill="#2440C8"/><circle cx="86" cy="10" r="6" fill="#FFFFFF" stroke="#9AA0AA" stroke-width="1.5"/><circle cx="112" cy="10" r="6" fill="#FFFFFF" stroke="#9AA0AA" stroke-width="1.5"/>
        <text x="140" y="15" class="mono" font-size="12" fill="#5A5E66">brief → lancio</text>
      </g>
    </g>
    <g transform="translate(355,0)">
      <rect x="0" y="0" width="330" height="160" fill="#FFFFFF" stroke="#DDDBD4" stroke-width="1.5"/>
      <rect x="0" y="0" width="330" height="6" fill="#2440C8"/>
      <text x="22" y="46" class="mono" font-size="14" fill="#2440C8">/02</text>
      <text x="22" y="86" class="body" font-size="24" fill="#14161A">Approvazioni</text>
      <text x="22" y="122" class="mono" font-size="13" fill="#5A5E66">chi · cosa · quando ✓</text>
    </g>
    <g transform="translate(710,0)">
      <rect x="0" y="0" width="330" height="160" fill="#FFFFFF" stroke="#DDDBD4" stroke-width="1.5"/>
      <rect x="0" y="0" width="330" height="6" fill="#2440C8"/>
      <text x="22" y="46" class="mono" font-size="14" fill="#2440C8">/03</text>
      <text x="22" y="86" class="body" font-size="24" fill="#14161A">File</text>
      <text x="22" y="122" class="mono" font-size="13" fill="#5A5E66">1 archivio, 0 allegati persi</text>
    </g>
    <g transform="translate(0,185)">
      <rect x="0" y="0" width="330" height="160" fill="#FFFFFF" stroke="#DDDBD4" stroke-width="1.5"/>
      <rect x="0" y="0" width="330" height="6" fill="#2440C8"/>
      <text x="22" y="46" class="mono" font-size="14" fill="#2440C8">/04</text>
      <text x="22" y="86" class="body" font-size="24" fill="#14161A">Fatture</text>
      <text x="22" y="122" class="mono" font-size="13" fill="#5A5E66">PDF · € · stato pagamento</text>
    </g>
    <g transform="translate(355,185)">
      <rect x="0" y="0" width="330" height="160" fill="#FFFFFF" stroke="#DDDBD4" stroke-width="1.5"/>
      <rect x="0" y="0" width="330" height="6" fill="#2440C8"/>
      <text x="22" y="46" class="mono" font-size="14" fill="#2440C8">/05</text>
      <text x="22" y="86" class="body" font-size="24" fill="#14161A">Richieste</text>
      <text x="22" y="122" class="mono" font-size="13" fill="#5A5E66">1 filo = 1 risposta</text>
    </g>
    <g transform="translate(710,185)">
      <rect x="0" y="0" width="330" height="160" fill="#14161A"/>
      <rect x="0" y="0" width="330" height="6" fill="#2440C8"/>
      <text x="22" y="46" class="mono" font-size="14" fill="#9AA0AA">/06</text>
      <text x="22" y="86" class="body" font-size="24" fill="#F7F6F2">Lingue</text>
      <text x="22" y="122" class="mono" font-size="13" fill="#9AA0AA">IT · EN · RU</text>
    </g>
  </g>
</svg>
