<svg xmlns="http://www.w3.org/2000/svg" width="1200" height="630" viewBox="0 0 1200 630" role="img" aria-label="Quanto costa un sito in Italia: cifre oneste">
  <defs>
    <pattern id="gridCena" width="40" height="40" patternUnits="userSpaceOnUse">
      <path d="M40 0H0V40" fill="none" stroke="#EBEAE4" stroke-width="1"/>
    </pattern>
    <style>
      .mono{font-family:'Fragment Mono',ui-monospace,'DejaVu Sans Mono',monospace;}
      .disp{font-family:'Clash Display','Arial Narrow',Arial,sans-serif;font-weight:600;}
      .body{font-family:'General Sans',system-ui,'DejaVu Sans',Arial,sans-serif;}
    </style>
  </defs>
  <rect width="1200" height="630" fill="#F7F6F2"/>
  <rect width="1200" height="630" fill="url(#gridCena)"/>
  <line x1="80" y1="96" x2="1120" y2="96" stroke="#14161A" stroke-width="1.5"/>
  <text x="80" y="82" class="mono" font-size="15" letter-spacing="3" fill="#5A5E66">REMARKA · STUDIO — БЛОГ</text>
  <text x="1120" y="82" class="mono" font-size="15" letter-spacing="2" fill="#2440C8" text-anchor="end">ЦЕНЫ · ИТАЛИЯ 2026</text>
  <text x="80" y="256" class="disp" font-size="108" letter-spacing="1" fill="#14161A">€ 1,9K–14K</text>
  <text x="84" y="318" class="body" font-size="34" font-weight="600" fill="#14161A">сколько стоит сайт в Италии</text>
  <text x="84" y="362" class="mono" font-size="20" fill="#5A5E66">честные цифры · визитка → магазин</text>
  <g transform="translate(770,150)">
    <text x="0" y="30" class="mono" font-size="14" fill="#5A5E66">ВИЗИТКА</text>
    <rect x="0" y="42" width="120" height="30" fill="#DDDBD4"/><text x="132" y="64" class="mono" font-size="15" fill="#5A5E66">€ 1 900–2 800</text>
    <text x="0" y="112" class="mono" font-size="14" fill="#5A5E66">КОРПОРАТИВНЫЙ</text>
    <rect x="0" y="124" width="230" height="30" fill="#2440C8"/><text x="242" y="146" class="mono" font-size="15" fill="#2440C8">€ 3 900–5 800</text>
    <text x="0" y="194" class="mono" font-size="14" fill="#5A5E66">МАГАЗИН</text>
    <rect x="0" y="206" width="330" height="30" fill="#14161A"/><text x="130" y="228" class="mono" font-size="15" fill="#FFFFFF">€ 7 500–14 000</text>
  </g>
  <g transform="translate(80,430)">
    <rect x="0" y="0" width="290" height="92" fill="#2440C8"/>
    <text x="24" y="37" class="mono" font-size="13" letter-spacing="2" fill="#C9D2FF">У НАС В ДОГОВОРЕ</text>
    <text x="24" y="76" class="disp" font-size="30" fill="#FFFFFF">PageSpeed 90+</text>
  </g>
  <g transform="translate(400,430)">
    <rect x="0" y="0" width="290" height="92" fill="none" stroke="#14161A" stroke-width="1.5"/>
    <text x="24" y="37" class="mono" font-size="13" letter-spacing="2" fill="#5A5E66">ОПОЗДАНИЕ</text>
    <text x="24" y="76" class="disp" font-size="30" fill="#14161A">−1% в день</text>
  </g>
</svg>
