<svg xmlns="http://www.w3.org/2000/svg" width="1200" height="630" viewBox="0 0 1200 630" role="img" aria-label="GEO Generative Engine Optimization">
  <defs>
    <pattern id="gridG" width="40" height="40" patternUnits="userSpaceOnUse">
      <path d="M40 0H0V40" fill="none" stroke="#EBEAE4" stroke-width="1"/>
    </pattern>
    <style>
      .mono{font-family:'Fragment Mono',ui-monospace,'DejaVu Sans Mono',monospace;}
      .disp{font-family:'Clash Display','Arial Narrow',Arial,sans-serif;font-weight:600;}
      .body{font-family:'General Sans',system-ui,'DejaVu Sans',Arial,sans-serif;}
    </style>
  </defs>
  <rect width="1200" height="630" fill="#F7F6F2"/>
  <rect width="1200" height="630" fill="url(#gridG)"/>
  <line x1="80" y1="96" x2="1120" y2="96" stroke="#14161A" stroke-width="1.5"/>
  <text x="80" y="82" class="mono" font-size="15" letter-spacing="3" fill="#5A5E66">REMARKA · STUDIO — BLOG</text>
  <text x="1120" y="82" class="mono" font-size="15" letter-spacing="2" fill="#2440C8" text-anchor="end">ChatGPT · Perplexity · Claude</text>
  <text x="80" y="252" class="disp" font-size="150" letter-spacing="4" fill="#14161A">GEO</text>
  <text x="82" y="312" class="body" font-size="34" font-weight="600" fill="#14161A">Generative Engine Optimization</text>
  <text x="82" y="356" class="mono" font-size="20" fill="#5A5E66">farsi citare / getting cited</text>
  <!-- chat bubble with citation -->
  <g transform="translate(720,150)">
    <rect x="0" y="0" width="400" height="230" rx="16" fill="#FFFFFF" stroke="#DDDBD4" stroke-width="1.5"/>
    <path d="M60 230 L60 275 L110 230 Z" fill="#FFFFFF" stroke="#DDDBD4" stroke-width="1.5"/>
    <rect x="30" y="40" width="300" height="16" rx="8" fill="#EBEAE4"/>
    <rect x="30" y="72" width="340" height="16" rx="8" fill="#EBEAE4"/>
    <rect x="30" y="104" width="220" height="16" rx="8" fill="#EBEAE4"/>
    <g transform="translate(30,150)">
      <rect x="0" y="0" width="150" height="46" rx="8" fill="#EEF1FE" stroke="#2440C8" stroke-width="1.5"/>
      <text x="18" y="30" class="mono" font-size="18" fill="#2440C8">[1] src</text>
    </g>
    <text x="200" y="180" class="mono" font-size="16" fill="#5A5E66">= voi · you</text>
  </g>
</svg>
